# xmcd
#
# Track frame offsets:
# 150
# 11289
# 27675
# 50751
# 67148
# 82361
# 105106
# 119372
# 134846
# 152427
# 166409
# 186761
#
# Disc length: 2701 seconds
#
#
# Revision: 0
# Processed by: cddbd v1.5.2PL0 Copyright (c) Steve Scherf et al.
# Submitted via: FreeRIP 2.96 
#
DISCID=a60a8b0c
DTITLE=Deaton, Honi and The Dream - Chasin' Dreams
DYEAR=1900
DGENRE=Bluegrass
TTITLE0=Deaton, Honi - Rollin' In My Sweet Baby's Arms
TTITLE1=Deaton, Honi - I Wanna Come Home
TTITLE2=Deaton, Honi - Mystery Train
TTITLE3=Deaton, Honi - I Don't Need A Thing At All
TTITLE4=Deaton, Honi - The Diaper Song
TTITLE5=Deaton, Honi - Just A Closer Walk With Thee
TTITLE6=Deaton, Honi - Ain't No Grave
TTITLE7=Deaton, Honi - Caldwell and Angelina the Baker Medley
TTITLE8=Deaton, Honi - Wagons West
TTITLE9=Deaton, Honi - I Wonder If Our Love's The Healin' Kind
TTITLE10=Deaton, Honi - Via Dolorosa
TTITLE11=Deaton, Honi - Freedon
EXTD=
EXTT0=
EXTT1=
EXTT2=
EXTT3=
EXTT4=
EXTT5=
EXTT6=
EXTT7=
EXTT8=
EXTT9=
EXTT10=
EXTT11=
PLAYORDER=
